<svg xmlns="http://www.w3.org/2000/svg" viewBox="0 0 512 512">
  <defs>
    <linearGradient id="g" x1="0" y1="0" x2="1" y2="1">
      <stop offset="0" stop-color="#0f766e"/>
      <stop offset="0.62" stop-color="#0e7490"/>
      <stop offset="1" stop-color="#164e63"/>
    </linearGradient>
  </defs>
  <rect width="512" height="512" rx="116" fill="url(#g)"/>
  <circle cx="404" cy="96" r="76" fill="#ffffff" opacity="0.16"/>
  <path d="M112 302c0-31 25-56 56-56h176c31 0 56 25 56 56v42c0 13-11 24-24 24h-22a40 40 0 0 1-78 0h-72a40 40 0 0 1-78 0h-22c-13 0-24-11-24-24v-42Z" fill="#fff"/>
  <path d="M166 204h180c18 0 34 12 40 29l17 50H109l17-50c6-17 22-29 40-29Z" fill="#e6fffb"/>
  <path d="M174 232h56v51h-78l10-32c2-11 5-19 12-19Zm108 0h56c8 0 15 8 18 19l10 32h-84v-51Z" fill="#0e7490" opacity="0.55"/>
  <circle cx="165" cy="368" r="23" fill="#10202b"/>
  <circle cx="315" cy="368" r="23" fill="#10202b"/>
  <path d="M124 156h264" stroke="#fff" stroke-width="28" stroke-linecap="round" opacity="0.95"/>
  <path d="M166 124h180" stroke="#fff" stroke-width="24" stroke-linecap="round" opacity="0.9"/>
</svg>
